{
  "accessors": [
    {
      "bufferView": 2,
      "componentType": 5126,
      "count": 30,
      "max": [
        1.599344253540039,
        -5.605591297149658,
        3.311927080154419
      ],
      "min": [
        -1.6011159420013428,
        -5.669142723083496,
        2.7421300411224365
      ],
      "type": "VEC3"
    },
    {
      "bufferView": 2,
      "byteOffset": 360,
      "componentType": 5126,
      "count": 30,
      "max": [
        0.21249191462993622,
        -0.9771546721458435,
        0.20719049870967865
      ],
      "min": [
        -0.21249191462993622,
        -1.0,
        -0.2071910947561264
      ],
      "type": "VEC3"
    },
    {
      "bufferView": 1,
      "componentType": 5126,
      "count": 30,
      "max": [
        0.996387779712677,
        0.853093683719635
      ],
      "min": [
        0.3812377154827118,
        0.3820580244064331
      ],
      "type": "VEC2"
    },
    {
      "bufferView": 0,
      "componentType": 5125,
      "count": 84,
      "type": "SCALAR"
    },
    {
      "bufferView": 2,
      "byteOffset": 720,
      "componentType": 5126,
      "count": 4334,
      "max": [
        2.6713640689849854,
        4.830555438995361,
        5.205658435821533
      ],
      "min": [
        -2.6731488704681396,
        -5.973941326141357,
        0.020784584805369377
      ],
      "type": "VEC3"
    },
    {
      "bufferView": 2,
      "byteOffset": 52728,
      "componentType": 5126,
      "count": 4334,
      "max": [
        1.0,
        1.0,
        1.0
      ],
      "min": [
        -1.0,
        -1.0,
        -1.0
      ],
      "type": "VEC3"
    },
    {
      "bufferView": 1,
      "byteOffset": 240,
      "componentType": 5126,
      "count": 4334,
      "max": [
        0.9995617270469666,
        0.9985272288322449
      ],
      "min": [
        0.12476959824562073,
        0.001410841941833496
      ],
      "type": "VEC2"
    },
    {
      "bufferView": 0,
      "byteOffset": 336,
      "componentType": 5125,
      "count": 16152,
      "type": "SCALAR"
    },
    {
      "bufferView": 2,
      "byteOffset": 104736,
      "componentType": 5126,
      "count": 152,
      "max": [
        2.190155029296875,
        5.067769527435303,
        5.041940689086914
      ],
      "min": [
        -2.1908204555511475,
        -1.4254461526870728,
        3.9707252979278564
      ],
      "type": "VEC3"
    },
    {
      "bufferView": 2,
      "byteOffset": 106560,
      "componentType": 5126,
      "count": 152,
      "max": [
        0.9991399645805359,
        0.9851241111755371,
        0.38330623507499695
      ],
      "min": [
        -0.9991399645805359,
        -0.9430311322212219,
        -0.024599310010671616
      ],
      "type": "VEC3"
    },
    {
      "bufferView": 1,
      "byteOffset": 34912,
      "componentType": 5126,
      "count": 152,
      "max": [
        0.9788694977760315,
        1.4713176488876343
      ],
      "min": [
        0.0211031436920166,
        -0.34228456020355225
      ],
      "type": "VEC2"
    },
    {
      "bufferView": 0,
      "byteOffset": 64944,
      "componentType": 5125,
      "count": 408,
      "type": "SCALAR"
    },
    {
      "bufferView": 2,
      "byteOffset": 108384,
      "componentType": 5126,
      "count": 14834,
      "max": [
        2.8772220611572266,
        6.722126483917236,
        5.670050621032715
      ],
      "min": [
        -2.869593381881714,
        -6.761612892150879,
        0.7075836062431335
      ],
      "type": "VEC3"
    },
    {
      "bufferView": 2,
      "byteOffset": 286392,
      "componentType": 5126,
      "count": 14834,
      "max": [
        1.0,
        1.0,
        1.0
      ],
      "min": [
        -1.0,
        -1.0,
        -1.0
      ],
      "type": "VEC3"
    },
    {
      "bufferView": 1,
      "byteOffset": 36128,
      "componentType": 5126,
      "count": 14834,
      "max": [
        0.9996172189712524,
        0.9995120167732239
      ],
      "min": [
        0.0,
        -5.900859832763672e-05
      ],
      "type": "VEC2"
    },
    {
      "bufferView": 0,
      "byteOffset": 66576,
      "componentType": 5125,
      "count": 47958,
      "type": "SCALAR"
    },
    {
      "bufferView": 2,
      "byteOffset": 464400,
      "componentType": 5126,
      "count": 176,
      "max": [
        1.725041389465332,
        -1.7495663166046143,
        4.110344409942627
      ],
      "min": [
        -1.7268141508102417,
        -5.0702595710754395,
        3.4991166591644287
      ],
      "type": "VEC3"
    },
    {
      "bufferView": 2,
      "byteOffset": 466512,
      "componentType": 5126,
      "count": 176,
      "max": [
        0.9999896883964539,
        0.9709334969520569,
        0.9983804821968079
      ],
      "min": [
        -0.9999896883964539,
        -0.9954414367675781,
        -0.9986023306846619
      ],
      "type": "VEC3"
    },
    {
      "bufferView": 1,
      "byteOffset": 154800,
      "componentType": 5126,
      "count": 176,
      "max": [
        0.9830734133720398,
        0.9123323559761047
      ],
      "min": [
        0.0017584461020305753,
        0.17488086223602295
      ],
      "type": "VEC2"
    },
    {
      "bufferView": 0,
      "byteOffset": 258408,
      "componentType": 5125,
      "count": 456,
      "type": "SCALAR"
    }
  ],
  "asset": {
    "extras": {
      "author": "Q.SARDOR (https://sketchfab.com/qsardor57913)",
      "license": "CC-BY-4.0 (http://creativecommons.org/licenses/by/4.0/)",
      "source": "https://sketchfab.com/3d-models/gaz-m1-emka-82fddda5616b49f793be418458f3f7fc",
      "title": "GAZ M1 EMKA"
    },
    "generator": "Sketchfab-16.12.0",
    "version": "2.0"
  },
  "bufferViews": [
    {
      "buffer": 0,
      "byteLength": 260232,
      "name": "floatBufferViews",
      "target": 34963
    },
    {
      "buffer": 0,
      "byteLength": 156208,
      "byteOffset": 260232,
      "byteStride": 8,
      "name": "floatBufferViews",
      "target": 34962
    },
    {
      "buffer": 0,
      "byteLength": 468624,
      "byteOffset": 416440,
      "byteStride": 12,
      "name": "floatBufferViews",
      "target": 34962
    }
  ],
  "buffers": [
    {
      "byteLength": 885064,
      "uri": "scene.bin"
    }
  ],
  "extensionsRequired": [
    "KHR_materials_pbrSpecularGlossiness"
  ],
  "extensionsUsed": [
    "KHR_materials_pbrSpecularGlossiness"
  ],
  "images": [
    {
      "uri": "textures/02_-_Default_diffuse.png"
    },
    {
      "uri": "textures/Glass_diffuse.png"
    },
    {
      "uri": "textures/Glass_specularGlossiness.png"
    },
    {
      "uri": "textures/HeadLight_diffuse.png"
    },
    {
      "uri": "textures/HeadLight_specularGlossiness.png"
    }
  ],
  "materials": [
    {
      "doubleSided": true,
      "extensions": {
        "KHR_materials_pbrSpecularGlossiness": {
          "diffuseFactor": [
            1.0,
            1.0,
            1.0,
            1.0
          ],
          "diffuseTexture": {
            "index": 0
          },
          "glossinessFactor": 0.4,
          "specularFactor": [
            0.0,
            0.0,
            0.0
          ]
        }
      },
      "name": "02_-_Default"
    },
    {
      "doubleSided": true,
      "extensions": {
        "KHR_materials_pbrSpecularGlossiness": {
          "diffuseFactor": [
            1.0,
            1.0,
            1.0,
            1.0
          ],
          "diffuseTexture": {
            "index": 0
          },
          "glossinessFactor": 0.0,
          "specularFactor": [
            0.0,
            0.0,
            0.0
          ]
        }
      },
      "name": "02_-_Default_1"
    },
    {
      "alphaMode": "BLEND",
      "doubleSided": true,
      "extensions": {
        "KHR_materials_pbrSpecularGlossiness": {
          "diffuseFactor": [
            1.0,
            1.0,
            1.0,
            0.1
          ],
          "diffuseTexture": {
            "index": 1
          },
          "glossinessFactor": 1.0,
          "specularFactor": [
            0.0,
            0.0,
            0.0
          ],
          "specularGlossinessTexture": {
            "index": 2
          }
        }
      },
      "name": "Glass"
    },
    {
      "doubleSided": true,
      "extensions": {
        "KHR_materials_pbrSpecularGlossiness": {
          "diffuseFactor": [
            1.0,
            1.0,
            1.0,
            1.0
          ],
          "diffuseTexture": {
            "index": 3
          },
          "glossinessFactor": 1.0,
          "specularFactor": [
            1.0,
            1.0,
            1.0
          ],
          "specularGlossinessTexture": {
            "index": 4
          }
        }
      },
      "name": "HeadLight"
    }
  ],
  "meshes": [
    {
      "name": "Object_0",
      "primitives": [
        {
          "attributes": {
            "NORMAL": 1,
            "POSITION": 0,
            "TEXCOORD_0": 2
          },
          "indices": 3,
          "material": 3,
          "mode": 4
        }
      ]
    },
    {
      "name": "Object_1",
      "primitives": [
        {
          "attributes": {
            "NORMAL": 5,
            "POSITION": 4,
            "TEXCOORD_0": 6
          },
          "indices": 7,
          "material": 1,
          "mode": 4
        }
      ]
    },
    {
      "name": "Object_2",
      "primitives": [
        {
          "attributes": {
            "NORMAL": 9,
            "POSITION": 8,
            "TEXCOORD_0": 10
          },
          "indices": 11,
          "material": 2,
          "mode": 4
        }
      ]
    },
    {
      "name": "Object_3",
      "primitives": [
        {
          "attributes": {
            "NORMAL": 13,
            "POSITION": 12,
            "TEXCOORD_0": 14
          },
          "indices": 15,
          "material": 0,
          "mode": 4
        }
      ]
    },
    {
      "name": "Object_4",
      "primitives": [
        {
          "attributes": {
            "NORMAL": 17,
            "POSITION": 16,
            "TEXCOORD_0": 18
          },
          "indices": 19,
          "material": 0,
          "mode": 4
        }
      ]
    }
  ],
  "nodes": [
    {
      "children": [
        1
      ],
      "matrix": [
        0.3333333432674408,
        0.0,
        0.0,
        0.0,
        0.0,
        7.401487051415874e-17,
        -0.3333333432674408,
        0.0,
        0.0,
        0.3333333432674408,
        7.401487051415874e-17,
        0.0,
        0.0,
        0.0,
        0.0,
        1.0
      ],
      "name": "Sketchfab_model"
    },
    {
      "children": [
        2,
        3,
        4,
        5,
        6
      ],
      "name": "gazm1.obj.cleaner.materialmerger.gles"
    },
    {
      "mesh": 0,
      "name": "Object_2"
    },
    {
      "mesh": 1,
      "name": "Object_3"
    },
    {
      "mesh": 2,
      "name": "Object_4"
    },
    {
      "mesh": 3,
      "name": "Object_5"
    },
    {
      "mesh": 4,
      "name": "Object_6"
    }
  ],
  "samplers": [
    {
      "magFilter": 9729,
      "minFilter": 9987,
      "wrapS": 10497,
      "wrapT": 10497
    }
  ],
  "scene": 0,
  "scenes": [
    {
      "name": "Sketchfab_Scene",
      "nodes": [
        0
      ]
    }
  ],
  "textures": [
    {
      "sampler": 0,
      "source": 0
    },
    {
      "sampler": 0,
      "source": 1
    },
    {
      "sampler": 0,
      "source": 2
    },
    {
      "sampler": 0,
      "source": 3
    },
    {
      "sampler": 0,
      "source": 4
    }
  ]
}
